<mxfile host="Electron" modified="2021-04-23T01:29:46.262Z" agent="5.0 (Windows NT 10.0; Win64; x64) AppleWebKit/537.36 (KHTML, like Gecko) draw.io/14.5.1 Chrome/89.0.4389.82 Electron/12.0.1 Safari/537.36" etag="1avPIKALG5LTwZfsdYDO" compressed="false" version="14.5.1" type="device">
  <diagram id="WwMSeqvjOUUMIoV3eq0b" name="Страница 3">
    <mxGraphModel dx="1138" dy="690" grid="1" gridSize="10" guides="1" tooltips="1" connect="1" arrows="1" fold="1" page="1" pageScale="1" pageWidth="827" pageHeight="1169" math="0" shadow="0">
      <root>
        <mxCell id="2rPqGZyKftzDMYt6mdqX-0" />
        <mxCell id="2rPqGZyKftzDMYt6mdqX-1" parent="2rPqGZyKftzDMYt6mdqX-0" />
        <mxCell id="a-hgKMOtzgNPJETS--O8-0" value="Teacher" style="swimlane;fontStyle=1;align=center;verticalAlign=top;childLayout=stackLayout;horizontal=1;startSize=26;horizontalStack=0;resizeParent=1;resizeParentMax=0;resizeLast=0;collapsible=1;marginBottom=0;" parent="2rPqGZyKftzDMYt6mdqX-1" vertex="1">
          <mxGeometry x="50" y="350" width="160" height="134" as="geometry" />
        </mxCell>
        <mxCell id="a-hgKMOtzgNPJETS--O8-1" value="- subj: string&#xa;" style="text;strokeColor=none;fillColor=none;align=left;verticalAlign=top;spacingLeft=4;spacingRight=4;overflow=hidden;rotatable=0;points=[[0,0.5],[1,0.5]];portConstraint=eastwest;" parent="a-hgKMOtzgNPJETS--O8-0" vertex="1">
          <mxGeometry y="26" width="160" height="26" as="geometry" />
        </mxCell>
        <mxCell id="0qfPU6Wh54u3nzKaWx7z-0" value="- name: string" style="text;strokeColor=none;fillColor=none;align=left;verticalAlign=top;spacingLeft=4;spacingRight=4;overflow=hidden;rotatable=0;points=[[0,0.5],[1,0.5]];portConstraint=eastwest;" parent="a-hgKMOtzgNPJETS--O8-0" vertex="1">
          <mxGeometry y="52" width="160" height="26" as="geometry" />
        </mxCell>
        <mxCell id="a-hgKMOtzgNPJETS--O8-2" value="" style="line;strokeWidth=1;fillColor=none;align=left;verticalAlign=middle;spacingTop=-1;spacingLeft=3;spacingRight=3;rotatable=0;labelPosition=right;points=[];portConstraint=eastwest;" parent="a-hgKMOtzgNPJETS--O8-0" vertex="1">
          <mxGeometry y="78" width="160" height="8" as="geometry" />
        </mxCell>
        <mxCell id="a-hgKMOtzgNPJETS--O8-3" value="+ setMark(Student,int): void&#xa;&#xa; " style="text;strokeColor=none;fillColor=none;align=left;verticalAlign=top;spacingLeft=4;spacingRight=4;overflow=hidden;rotatable=0;points=[[0,0.5],[1,0.5]];portConstraint=eastwest;" parent="a-hgKMOtzgNPJETS--O8-0" vertex="1">
          <mxGeometry y="86" width="160" height="24" as="geometry" />
        </mxCell>
        <mxCell id="a-hgKMOtzgNPJETS--O8-4" value="+ printAllMarks(): void" style="text;strokeColor=none;fillColor=none;align=left;verticalAlign=top;spacingLeft=4;spacingRight=4;overflow=hidden;rotatable=0;points=[[0,0.5],[1,0.5]];portConstraint=eastwest;" parent="a-hgKMOtzgNPJETS--O8-0" vertex="1">
          <mxGeometry y="110" width="160" height="24" as="geometry" />
        </mxCell>
        <mxCell id="a-hgKMOtzgNPJETS--O8-5" value="" style="endArrow=open;endFill=1;endSize=12;html=1;exitX=0;exitY=1;exitDx=0;exitDy=0;entryX=0.5;entryY=0;entryDx=0;entryDy=0;" parent="2rPqGZyKftzDMYt6mdqX-1" target="a-hgKMOtzgNPJETS--O8-0" edge="1">
          <mxGeometry width="160" relative="1" as="geometry">
            <mxPoint x="319" y="240" as="sourcePoint" />
            <mxPoint x="490" y="430" as="targetPoint" />
          </mxGeometry>
        </mxCell>
        <mxCell id="a-hgKMOtzgNPJETS--O8-6" value="" style="endArrow=open;endFill=1;endSize=12;html=1;exitX=0.5;exitY=1;exitDx=0;exitDy=0;" parent="2rPqGZyKftzDMYt6mdqX-1" edge="1">
          <mxGeometry width="160" relative="1" as="geometry">
            <mxPoint x="414" y="240" as="sourcePoint" />
            <mxPoint x="418.313725490196" y="350" as="targetPoint" />
          </mxGeometry>
        </mxCell>
        <mxCell id="a-hgKMOtzgNPJETS--O8-7" value="Student" style="swimlane;fontStyle=1;align=center;verticalAlign=top;childLayout=stackLayout;horizontal=1;startSize=26;horizontalStack=0;resizeParent=1;resizeParentMax=0;resizeLast=0;collapsible=1;marginBottom=0;" parent="2rPqGZyKftzDMYt6mdqX-1" vertex="1">
          <mxGeometry x="580" y="350" width="160" height="112" as="geometry" />
        </mxCell>
        <mxCell id="a-hgKMOtzgNPJETS--O8-8" value="- zachetka: Zachetka" style="text;strokeColor=none;fillColor=none;align=left;verticalAlign=top;spacingLeft=4;spacingRight=4;overflow=hidden;rotatable=0;points=[[0,0.5],[1,0.5]];portConstraint=eastwest;" parent="a-hgKMOtzgNPJETS--O8-7" vertex="1">
          <mxGeometry y="26" width="160" height="26" as="geometry" />
        </mxCell>
        <mxCell id="0qfPU6Wh54u3nzKaWx7z-2" value="- name: string" style="text;strokeColor=none;fillColor=none;align=left;verticalAlign=top;spacingLeft=4;spacingRight=4;overflow=hidden;rotatable=0;points=[[0,0.5],[1,0.5]];portConstraint=eastwest;" parent="a-hgKMOtzgNPJETS--O8-7" vertex="1">
          <mxGeometry y="52" width="160" height="26" as="geometry" />
        </mxCell>
        <mxCell id="a-hgKMOtzgNPJETS--O8-9" value="" style="line;strokeWidth=1;fillColor=none;align=left;verticalAlign=middle;spacingTop=-1;spacingLeft=3;spacingRight=3;rotatable=0;labelPosition=right;points=[];portConstraint=eastwest;" parent="a-hgKMOtzgNPJETS--O8-7" vertex="1">
          <mxGeometry y="78" width="160" height="8" as="geometry" />
        </mxCell>
        <mxCell id="a-hgKMOtzgNPJETS--O8-10" value="+ printAllMarks(): void" style="text;strokeColor=none;fillColor=none;align=left;verticalAlign=top;spacingLeft=4;spacingRight=4;overflow=hidden;rotatable=0;points=[[0,0.5],[1,0.5]];portConstraint=eastwest;" parent="a-hgKMOtzgNPJETS--O8-7" vertex="1">
          <mxGeometry y="86" width="160" height="26" as="geometry" />
        </mxCell>
        <mxCell id="a-hgKMOtzgNPJETS--O8-11" value="" style="endArrow=open;endFill=1;endSize=12;html=1;exitX=1;exitY=1;exitDx=0;exitDy=0;entryX=0;entryY=0;entryDx=0;entryDy=0;" parent="2rPqGZyKftzDMYt6mdqX-1" target="a-hgKMOtzgNPJETS--O8-7" edge="1">
          <mxGeometry width="160" relative="1" as="geometry">
            <mxPoint x="509" y="240" as="sourcePoint" />
            <mxPoint x="490" y="430" as="targetPoint" />
          </mxGeometry>
        </mxCell>
        <mxCell id="a-hgKMOtzgNPJETS--O8-16" value="Admin" style="swimlane;fontStyle=1;align=center;verticalAlign=top;childLayout=stackLayout;horizontal=1;startSize=26;horizontalStack=0;resizeParent=1;resizeParentMax=0;resizeLast=0;collapsible=1;marginBottom=0;" parent="2rPqGZyKftzDMYt6mdqX-1" vertex="1">
          <mxGeometry x="340" y="350" width="200" height="294" as="geometry" />
        </mxCell>
        <mxCell id="a-hgKMOtzgNPJETS--O8-17" value="- studList: list&lt;Student&gt;&#xa;" style="text;strokeColor=none;fillColor=none;align=left;verticalAlign=top;spacingLeft=4;spacingRight=4;overflow=hidden;rotatable=0;points=[[0,0.5],[1,0.5]];portConstraint=eastwest;" parent="a-hgKMOtzgNPJETS--O8-16" vertex="1">
          <mxGeometry y="26" width="200" height="26" as="geometry" />
        </mxCell>
        <mxCell id="0qfPU6Wh54u3nzKaWx7z-1" value="- teachList: List&lt;Teacher&gt;&#xa;" style="text;strokeColor=none;fillColor=none;align=left;verticalAlign=top;spacingLeft=4;spacingRight=4;overflow=hidden;rotatable=0;points=[[0,0.5],[1,0.5]];portConstraint=eastwest;" parent="a-hgKMOtzgNPJETS--O8-16" vertex="1">
          <mxGeometry y="52" width="200" height="26" as="geometry" />
        </mxCell>
        <mxCell id="a-hgKMOtzgNPJETS--O8-19" value="- name: string" style="text;strokeColor=none;fillColor=none;align=left;verticalAlign=top;spacingLeft=4;spacingRight=4;overflow=hidden;rotatable=0;points=[[0,0.5],[1,0.5]];portConstraint=eastwest;" parent="a-hgKMOtzgNPJETS--O8-16" vertex="1">
          <mxGeometry y="78" width="200" height="26" as="geometry" />
        </mxCell>
        <mxCell id="a-hgKMOtzgNPJETS--O8-20" value="" style="line;strokeWidth=1;fillColor=none;align=left;verticalAlign=middle;spacingTop=-1;spacingLeft=3;spacingRight=3;rotatable=0;labelPosition=right;points=[];portConstraint=eastwest;" parent="a-hgKMOtzgNPJETS--O8-16" vertex="1">
          <mxGeometry y="104" width="200" height="8" as="geometry" />
        </mxCell>
        <mxCell id="a-hgKMOtzgNPJETS--O8-21" value="+ addTeacher(): List&lt;Teacher&gt;" style="text;strokeColor=none;fillColor=none;align=left;verticalAlign=top;spacingLeft=4;spacingRight=4;overflow=hidden;rotatable=0;points=[[0,0.5],[1,0.5]];portConstraint=eastwest;" parent="a-hgKMOtzgNPJETS--O8-16" vertex="1">
          <mxGeometry y="112" width="200" height="26" as="geometry" />
        </mxCell>
        <mxCell id="a-hgKMOtzgNPJETS--O8-22" value="+ addSubject(): List&lt;Subject&gt;" style="text;strokeColor=none;fillColor=none;align=left;verticalAlign=top;spacingLeft=4;spacingRight=4;overflow=hidden;rotatable=0;points=[[0,0.5],[1,0.5]];portConstraint=eastwest;" parent="a-hgKMOtzgNPJETS--O8-16" vertex="1">
          <mxGeometry y="138" width="200" height="26" as="geometry" />
        </mxCell>
        <mxCell id="a-hgKMOtzgNPJETS--O8-23" value="+ addStudent(): List&lt;Student&gt;" style="text;strokeColor=none;fillColor=none;align=left;verticalAlign=top;spacingLeft=4;spacingRight=4;overflow=hidden;rotatable=0;points=[[0,0.5],[1,0.5]];portConstraint=eastwest;" parent="a-hgKMOtzgNPJETS--O8-16" vertex="1">
          <mxGeometry y="164" width="200" height="26" as="geometry" />
        </mxCell>
        <mxCell id="a-hgKMOtzgNPJETS--O8-24" value="+ delStudent(): List&lt;Student&gt;" style="text;strokeColor=none;fillColor=none;align=left;verticalAlign=top;spacingLeft=4;spacingRight=4;overflow=hidden;rotatable=0;points=[[0,0.5],[1,0.5]];portConstraint=eastwest;" parent="a-hgKMOtzgNPJETS--O8-16" vertex="1">
          <mxGeometry y="190" width="200" height="26" as="geometry" />
        </mxCell>
        <mxCell id="a-hgKMOtzgNPJETS--O8-25" value="+ delSubject(): List&lt;Subject&gt;" style="text;strokeColor=none;fillColor=none;align=left;verticalAlign=top;spacingLeft=4;spacingRight=4;overflow=hidden;rotatable=0;points=[[0,0.5],[1,0.5]];portConstraint=eastwest;" parent="a-hgKMOtzgNPJETS--O8-16" vertex="1">
          <mxGeometry y="216" width="200" height="26" as="geometry" />
        </mxCell>
        <mxCell id="a-hgKMOtzgNPJETS--O8-26" value="+ delTeacher(): List&lt;Teacher&gt;" style="text;strokeColor=none;fillColor=none;align=left;verticalAlign=top;spacingLeft=4;spacingRight=4;overflow=hidden;rotatable=0;points=[[0,0.5],[1,0.5]];portConstraint=eastwest;" parent="a-hgKMOtzgNPJETS--O8-16" vertex="1">
          <mxGeometry y="242" width="200" height="26" as="geometry" />
        </mxCell>
        <mxCell id="a-hgKMOtzgNPJETS--O8-27" value="+ printAllMarks(): void" style="text;strokeColor=none;fillColor=none;align=left;verticalAlign=top;spacingLeft=4;spacingRight=4;overflow=hidden;rotatable=0;points=[[0,0.5],[1,0.5]];portConstraint=eastwest;" parent="a-hgKMOtzgNPJETS--O8-16" vertex="1">
          <mxGeometry y="268" width="200" height="26" as="geometry" />
        </mxCell>
        <mxCell id="a-hgKMOtzgNPJETS--O8-30" value="" style="endArrow=open;endFill=1;endSize=12;html=1;exitX=0.481;exitY=1.167;exitDx=0;exitDy=0;exitPerimeter=0;entryX=0.25;entryY=0;entryDx=0;entryDy=0;" parent="2rPqGZyKftzDMYt6mdqX-1" source="a-hgKMOtzgNPJETS--O8-4" target="VW8cfVyC3zhTzw_JLDQ0-0" edge="1">
          <mxGeometry width="160" relative="1" as="geometry">
            <mxPoint x="330" y="530" as="sourcePoint" />
            <mxPoint x="125" y="620" as="targetPoint" />
          </mxGeometry>
        </mxCell>
        <mxCell id="a-hgKMOtzgNPJETS--O8-32" value="" style="endArrow=open;endFill=1;endSize=12;html=1;exitX=0.689;exitY=1.077;exitDx=0;exitDy=0;exitPerimeter=0;entryX=1;entryY=0.5;entryDx=0;entryDy=0;" parent="2rPqGZyKftzDMYt6mdqX-1" source="a-hgKMOtzgNPJETS--O8-27" target="7kwoaesMsXhSavkBMID4-3" edge="1">
          <mxGeometry width="160" relative="1" as="geometry">
            <mxPoint x="330" y="530" as="sourcePoint" />
            <mxPoint x="231" y="860" as="targetPoint" />
          </mxGeometry>
        </mxCell>
        <mxCell id="a-hgKMOtzgNPJETS--O8-33" value="" style="endArrow=open;endFill=1;endSize=12;html=1;exitX=0.069;exitY=1;exitDx=0;exitDy=0;exitPerimeter=0;entryX=0.162;entryY=-0.08;entryDx=0;entryDy=0;entryPerimeter=0;" parent="2rPqGZyKftzDMYt6mdqX-1" source="a-hgKMOtzgNPJETS--O8-4" edge="1">
          <mxGeometry width="160" relative="1" as="geometry">
            <mxPoint x="330" y="530" as="sourcePoint" />
            <mxPoint x="54.182000000000016" y="806" as="targetPoint" />
          </mxGeometry>
        </mxCell>
        <mxCell id="hpt3fCbGdpKe4o7Kskcn-0" value="&lt;p style=&quot;margin: 0px ; margin-top: 4px ; text-align: center&quot;&gt;&lt;i&gt;&amp;lt;&amp;lt;Interface&amp;gt;&amp;gt;&lt;/i&gt;&lt;br&gt;&lt;b&gt;User&lt;/b&gt;&lt;/p&gt;&lt;hr size=&quot;1&quot;&gt;&lt;p style=&quot;margin: 0px ; margin-left: 4px&quot;&gt;&lt;br&gt;+ virtual printAllMarks()=0: void&lt;/p&gt;" style="verticalAlign=top;align=left;overflow=fill;fontSize=12;fontFamily=Helvetica;html=1;" parent="2rPqGZyKftzDMYt6mdqX-1" vertex="1">
          <mxGeometry x="319" y="160" width="190" height="140" as="geometry" />
        </mxCell>
        <mxCell id="MKdqiX4e13HLky8n6Pw7-0" value="Zachetka" style="swimlane;fontStyle=0;childLayout=stackLayout;horizontal=1;startSize=26;fillColor=none;horizontalStack=0;resizeParent=1;resizeParentMax=0;resizeLast=0;collapsible=1;marginBottom=0;" parent="2rPqGZyKftzDMYt6mdqX-1" vertex="1">
          <mxGeometry x="590" y="670" width="210" height="70" as="geometry" />
        </mxCell>
        <mxCell id="MKdqiX4e13HLky8n6Pw7-1" value="+# subjList: Map&lt;(Subject,&#xa;Teacher)&gt;" style="text;strokeColor=none;fillColor=none;align=left;verticalAlign=top;spacingLeft=4;spacingRight=4;overflow=hidden;rotatable=0;points=[[0,0.5],[1,0.5]];portConstraint=eastwest;" parent="MKdqiX4e13HLky8n6Pw7-0" vertex="1">
          <mxGeometry y="26" width="210" height="44" as="geometry" />
        </mxCell>
        <mxCell id="7kwoaesMsXhSavkBMID4-3" value="+ printStudentListMarkSubject(subj): void" style="html=1;" parent="2rPqGZyKftzDMYt6mdqX-1" vertex="1">
          <mxGeometry x="20" y="810" width="250" height="50" as="geometry" />
        </mxCell>
        <mxCell id="FgnSuvk3gndKMmIj3eGp-0" value="Subject" style="swimlane;fontStyle=0;childLayout=stackLayout;horizontal=1;startSize=26;fillColor=none;horizontalStack=0;resizeParent=1;resizeParentMax=0;resizeLast=0;collapsible=1;marginBottom=0;" parent="2rPqGZyKftzDMYt6mdqX-1" vertex="1">
          <mxGeometry x="430" y="790" width="140" height="78" as="geometry" />
        </mxCell>
        <mxCell id="FgnSuvk3gndKMmIj3eGp-1" value="+# subj: string" style="text;strokeColor=none;fillColor=none;align=left;verticalAlign=top;spacingLeft=4;spacingRight=4;overflow=hidden;rotatable=0;points=[[0,0.5],[1,0.5]];portConstraint=eastwest;" parent="FgnSuvk3gndKMmIj3eGp-0" vertex="1">
          <mxGeometry y="26" width="140" height="26" as="geometry" />
        </mxCell>
        <mxCell id="FgnSuvk3gndKMmIj3eGp-2" value="+# mark: []int" style="text;strokeColor=none;fillColor=none;align=left;verticalAlign=top;spacingLeft=4;spacingRight=4;overflow=hidden;rotatable=0;points=[[0,0.5],[1,0.5]];portConstraint=eastwest;" parent="FgnSuvk3gndKMmIj3eGp-0" vertex="1">
          <mxGeometry y="52" width="140" height="26" as="geometry" />
        </mxCell>
        <mxCell id="a-hgKMOtzgNPJETS--O8-15" value="" style="endArrow=open;endFill=1;endSize=12;html=1;exitX=1;exitY=0;exitDx=0;exitDy=0;entryX=0.519;entryY=1.091;entryDx=0;entryDy=0;entryPerimeter=0;" parent="FgnSuvk3gndKMmIj3eGp-0" target="MKdqiX4e13HLky8n6Pw7-1" edge="1">
          <mxGeometry width="160" relative="1" as="geometry">
            <mxPoint x="60" as="sourcePoint" />
            <mxPoint x="308.53" y="-14" as="targetPoint" />
          </mxGeometry>
        </mxCell>
        <mxCell id="VW8cfVyC3zhTzw_JLDQ0-0" value="&lt;span style=&quot;text-align: left&quot;&gt;+ printAllStudentsList(): void&lt;/span&gt;" style="html=1;" parent="2rPqGZyKftzDMYt6mdqX-1" vertex="1">
          <mxGeometry x="80" y="660" width="190" height="50" as="geometry" />
        </mxCell>
        <mxCell id="gjAz-PYxi_qsv2TvEk8S-0" value="" style="endArrow=classic;html=1;exitX=0;exitY=0.5;exitDx=0;exitDy=0;entryX=0.75;entryY=0;entryDx=0;entryDy=0;" edge="1" parent="2rPqGZyKftzDMYt6mdqX-1" source="a-hgKMOtzgNPJETS--O8-17" target="VW8cfVyC3zhTzw_JLDQ0-0">
          <mxGeometry width="50" height="50" relative="1" as="geometry">
            <mxPoint x="390" y="640" as="sourcePoint" />
            <mxPoint x="440" y="590" as="targetPoint" />
          </mxGeometry>
        </mxCell>
        <mxCell id="gjAz-PYxi_qsv2TvEk8S-1" value="" style="endArrow=classic;html=1;exitX=0.476;exitY=0;exitDx=0;exitDy=0;exitPerimeter=0;entryX=0.353;entryY=1.092;entryDx=0;entryDy=0;entryPerimeter=0;" edge="1" parent="2rPqGZyKftzDMYt6mdqX-1" source="MKdqiX4e13HLky8n6Pw7-0" target="a-hgKMOtzgNPJETS--O8-10">
          <mxGeometry width="50" height="50" relative="1" as="geometry">
            <mxPoint x="390" y="540" as="sourcePoint" />
            <mxPoint x="440" y="490" as="targetPoint" />
          </mxGeometry>
        </mxCell>
      </root>
    </mxGraphModel>
  </diagram>
</mxfile>
